<?xml version="1.0" encoding="utf-8"?>
<!DOCTYPE svg PUBLIC "-//W3C//DTD SVG 1.1//EN" "http://www.w3.org/Graphics/SVG/1.1/DTD/svg11.dtd">
<svg version="1.1" xmlns="http://www.w3.org/2000/svg" xmlns:xlink="http://www.w3.org/1999/xlink" width="208px" height="40px" viewBox="0 0 208 40">
<g id="logo">
	<g id="logo-1">
		<path d="M97.187,16.086c0.321-0.841,0.767-1.611,1.336-2.31c0.569-0.699,1.243-1.299,2.022-1.8s1.645-0.891,2.598-1.169 c0.952-0.278,1.967-0.417,3.043-0.417c1.348,0,2.561,0.195,3.637,0.584s1.988,0.934,2.737,1.633 c0.748,0.699,1.323,1.531,1.725,2.496c0.402,0.965,0.604,2.017,0.604,3.154c0,1.126-0.17,2.109-0.51,2.95 c-0.341,0.842-0.814,1.593-1.42,2.254c-0.606,0.662-1.333,1.262-2.18,1.801c-0.848,0.537-1.772,1.066-2.774,1.586 c-1.744,0.916-3.17,1.914-4.277,2.996c-1.107,1.083-1.822,2.323-2.143,3.721h13.526v3.878H96.76c0-1.818,0.266-3.457,0.798-4.917 c0.532-1.459,1.243-2.765,2.134-3.915s1.911-2.158,3.062-3.024c1.15-0.865,2.344-1.614,3.581-2.245 c0.568-0.297,1.122-0.612,1.661-0.946c0.537-0.334,1.014-0.708,1.428-1.123c0.415-0.414,0.745-0.877,0.993-1.391 c0.247-0.513,0.371-1.091,0.371-1.735c0-0.557-0.114-1.073-0.343-1.549c-0.229-0.476-0.548-0.894-0.956-1.252 c-0.408-0.358-0.897-0.64-1.466-0.844c-0.569-0.204-1.194-0.306-1.874-0.306c-1.447,0-2.598,0.315-3.451,0.946 s-1.491,1.491-1.911,2.579L97.187,16.086z"/>
	</g>
	<g id="logo-2">
		<path d="M148.028,14.755c1.438,0,2.75,0.264,3.938,0.792c1.188,0.528,2.2,1.292,3.036,2.288c0.836,0.998,1.488,2.222,1.958,3.674 c0.469,1.451,0.704,3.117,0.704,4.994c0,1.848-0.235,3.506-0.704,4.972c-0.47,1.468-1.122,2.706-1.958,3.718 s-1.849,1.782-3.036,2.311c-1.188,0.527-2.501,0.791-3.938,0.791s-2.75-0.264-3.938-0.791c-1.188-0.528-2.2-1.291-3.036-2.288 s-1.489-2.222-1.958-3.675c-0.47-1.451-0.704-3.115-0.704-4.994c0-1.848,0.234-3.497,0.704-4.949 c0.469-1.452,1.122-2.684,1.958-3.696c0.836-1.012,1.848-1.789,3.036-2.332C145.278,15.027,146.591,14.755,148.028,14.755z M148.028,35.523c2.053,0,3.638-0.792,4.752-2.376c1.115-1.584,1.673-3.798,1.673-6.644c0-2.816-0.544-5.016-1.629-6.6 s-2.684-2.376-4.796-2.376c-2.111,0-3.711,0.77-4.796,2.31c-1.085,1.54-1.628,3.778-1.628,6.709c0,2.816,0.543,5.017,1.628,6.601 S145.917,35.523,148.028,35.523z"/> <path d="M167.124,17.748c0.704-1.026,1.547-1.782,2.53-2.266c0.982-0.484,2.074-0.726,3.277-0.726 c2.757,0,4.789,0.829,6.095,2.486c1.305,1.657,1.958,4.349,1.958,8.074v12.452h-3.08V24.039c0-2.375-0.499-4.054-1.496-5.038 c-0.998-0.982-2.244-1.474-3.74-1.474c-0.792,0-1.525,0.104-2.2,0.308c-0.675,0.206-1.262,0.558-1.76,1.056 c-0.499,0.499-0.888,1.159-1.166,1.98c-0.279,0.822-0.418,1.848-0.418,3.08v13.816h-3.08V15.284h3.08V17.748z"/> <path d="M190.399,27.779c0.265,2.288,0.953,4.137,2.068,5.545c1.114,1.407,2.64,2.111,4.576,2.111c0.82,0,1.656-0.132,2.508-0.396 c0.851-0.264,1.701-0.718,2.552-1.363l1.672,2.068c-0.88,0.732-1.914,1.342-3.102,1.825c-1.188,0.484-2.442,0.726-3.762,0.726 c-1.526,0-2.89-0.314-4.093-0.945s-2.222-1.488-3.058-2.574c-0.836-1.084-1.481-2.339-1.937-3.762 c-0.455-1.422-0.682-2.926-0.682-4.51c0-1.877,0.242-3.543,0.727-4.994c0.483-1.452,1.15-2.677,2.002-3.674 c0.85-0.997,1.876-1.76,3.079-2.288c1.203-0.528,2.522-0.792,3.961-0.792c1.202,0,2.339,0.213,3.409,0.638 c1.07,0.426,2.017,1.078,2.838,1.958s1.467,2.01,1.937,3.388c0.469,1.379,0.704,3.006,0.704,4.883c0,0.236,0,0.528,0,0.881 c0,0.352-0.029,0.777-0.088,1.275H190.399z M196.912,17.527c-1.819,0-3.338,0.602-4.555,1.804 c-1.218,1.203-1.899,3.095-2.046,5.676h12.364c0-1.525-0.191-2.772-0.572-3.74c-0.382-0.968-0.857-1.73-1.43-2.288 c-0.572-0.557-1.195-0.938-1.87-1.144C198.129,17.631,197.498,17.527,196.912,17.527z"/>
	</g>
	<g id="logo-3">
		<path d="M44.896,37.768v-2.2c-0.91,0.821-1.929,1.481-3.058,1.979c-1.129,0.499-2.31,0.748-3.542,0.748 c-2.259,0-4.1-0.637-5.522-1.914c-1.423-1.275-2.134-3.174-2.134-5.697c0-1.291,0.227-2.404,0.682-3.344 c0.455-0.938,1.056-1.709,1.804-2.311c0.748-0.601,1.621-1.049,2.618-1.342c0.997-0.293,2.024-0.439,3.08-0.439 c0.938,0,1.906,0.117,2.904,0.352c0.997,0.234,2.053,0.646,3.168,1.232v-1.893c0-1.145-0.14-2.068-0.418-2.772 c-0.279-0.704-0.646-1.261-1.1-1.672c-0.455-0.411-0.983-0.689-1.584-0.836c-0.602-0.146-1.21-0.22-1.826-0.22 c-0.557,0-1.144,0.074-1.76,0.22c-0.616,0.147-1.218,0.337-1.804,0.572c-0.587,0.235-1.151,0.492-1.694,0.77 c-0.543,0.279-1.02,0.565-1.43,0.858l-0.88-2.64c0.909-0.586,2.061-1.144,3.454-1.672c1.393-0.528,2.867-0.792,4.422-0.792 c0.792,0,1.628,0.11,2.508,0.33c0.88,0.22,1.686,0.616,2.42,1.188c0.733,0.572,1.342,1.364,1.826,2.376 c0.484,1.012,0.726,2.31,0.726,3.894v15.225H44.896z M38.604,35.611c0.674,0,1.32-0.102,1.936-0.308 c0.616-0.205,1.188-0.47,1.716-0.792c0.528-0.322,1.012-0.697,1.452-1.122s0.836-0.843,1.188-1.254v-4.356 c-0.733-0.498-1.636-0.931-2.706-1.298c-1.071-0.366-2.09-0.55-3.058-0.55c-0.763,0-1.481,0.096-2.156,0.286 c-0.675,0.19-1.269,0.483-1.782,0.88s-0.924,0.888-1.232,1.475c-0.308,0.586-0.462,1.291-0.462,2.111 c0,1.496,0.44,2.691,1.32,3.586C35.7,35.164,36.961,35.611,38.604,35.611z"/> <path d="M66.016,19.904c-0.587-0.586-1.32-1.137-2.2-1.65c-0.88-0.513-1.936-0.77-3.168-0.77c-1.32,0-2.362,0.264-3.124,0.792 c-0.763,0.528-1.144,1.247-1.144,2.156c0,0.587,0.146,1.086,0.44,1.496c0.293,0.411,0.674,0.785,1.144,1.122 c0.469,0.337,1.012,0.638,1.628,0.901c0.616,0.265,1.261,0.528,1.936,0.793c0.821,0.322,1.665,0.682,2.53,1.078 c0.865,0.396,1.635,0.873,2.31,1.43c0.674,0.557,1.232,1.225,1.672,2.002s0.66,1.738,0.66,2.882c0,1.878-0.675,3.374-2.024,4.487 c-1.35,1.115-3.197,1.672-5.544,1.672c-1.525,0-2.963-0.373-4.312-1.121c-1.35-0.748-2.494-1.68-3.432-2.795l2.156-1.891 c0.674,0.82,1.525,1.539,2.552,2.155s2.126,0.924,3.3,0.924c1.232,0,2.273-0.278,3.124-0.836c0.851-0.557,1.276-1.364,1.276-2.42 c0-0.675-0.162-1.269-0.484-1.782c-0.323-0.513-0.748-0.96-1.276-1.342c-0.528-0.381-1.13-0.727-1.804-1.033 c-0.675-0.309-1.35-0.595-2.024-0.859c-0.88-0.352-1.731-0.732-2.552-1.144c-0.821-0.41-1.54-0.88-2.156-1.407 c-0.616-0.528-1.107-1.137-1.474-1.826c-0.367-0.689-0.55-1.504-0.55-2.442c0-0.851,0.183-1.628,0.55-2.332 c0.367-0.704,0.865-1.305,1.496-1.804c0.63-0.498,1.393-0.887,2.288-1.166c0.895-0.278,1.87-0.418,2.926-0.418 c1.525,0,2.896,0.301,4.114,0.902c1.217,0.602,2.28,1.445,3.19,2.53L66.016,19.904z"/> <path d="M76.444,27.779c0.264,2.288,0.953,4.137,2.068,5.545c1.114,1.407,2.64,2.111,4.576,2.111c0.821,0,1.657-0.132,2.508-0.396 c0.85-0.264,1.701-0.718,2.552-1.363l1.672,2.068c-0.88,0.732-1.914,1.342-3.102,1.825c-1.188,0.484-2.442,0.726-3.762,0.726 c-1.525,0-2.89-0.314-4.092-0.945c-1.203-0.631-2.222-1.488-3.058-2.574c-0.836-1.084-1.481-2.339-1.936-3.762 c-0.455-1.422-0.682-2.926-0.682-4.51c0-1.877,0.242-3.543,0.726-4.994c0.484-1.452,1.151-2.677,2.002-3.674 c0.851-0.997,1.877-1.76,3.08-2.288c1.203-0.528,2.522-0.792,3.96-0.792c1.203,0,2.339,0.213,3.41,0.638 c1.07,0.426,2.016,1.078,2.838,1.958c0.821,0.88,1.466,2.01,1.936,3.388c0.469,1.379,0.704,3.006,0.704,4.883 c0,0.236,0,0.528,0,0.881c0,0.352-0.03,0.777-0.088,1.275H76.444z M82.956,17.527c-1.819,0-3.337,0.602-4.554,1.804 c-1.217,1.203-1.899,3.095-2.046,5.676H88.72c0-1.525-0.191-2.772-0.572-3.74c-0.381-0.968-0.858-1.73-1.43-2.288 c-0.572-0.557-1.196-0.938-1.87-1.144C84.173,17.631,83.542,17.527,82.956,17.527z"/>
	</g>
	<g id="logo-4">
		<path d="M130.1,6.449V38.1h-3.5V6.449H117v-3.35h22.75v3.35H130.1z"/>
	</g>
	<g id="logo-5">
			<path d="M3.25,3.099h11.6c2.033,0,3.741,0.267,5.125,0.8c1.383,0.534,2.483,1.225,3.3,2.075c0.816,0.85,1.4,1.825,1.75,2.925 c0.35,1.1,0.525,2.217,0.525,3.35c0,1.8-0.5,3.325-1.5,4.575s-2.333,2.192-4,2.825c1.9,0.467,3.5,1.425,4.8,2.875 c1.3,1.451,1.95,3.375,1.95,5.775c0,1.2-0.175,2.384-0.525,3.551c-0.35,1.166-0.958,2.208-1.825,3.125 c-0.867,0.916-2.018,1.666-3.45,2.25c-1.434,0.583-3.217,0.875-5.35,0.875H3.25V3.099z M14,18.399c2.767,0,4.841-0.566,6.225-1.7 c1.383-1.133,2.075-2.65,2.075-4.55c0-0.7-0.1-1.408-0.3-2.125c-0.2-0.716-0.559-1.35-1.075-1.9c-0.517-0.55-1.242-1-2.175-1.35 c-0.934-0.35-2.134-0.525-3.6-0.525h-8.4v12.15H14z M16.25,34.949c1.433,0,2.625-0.184,3.575-0.551 c0.95-0.365,1.7-0.841,2.25-1.424c0.55-0.584,0.933-1.258,1.15-2.025c0.216-0.767,0.325-1.551,0.325-2.35 c0-0.934-0.133-1.826-0.4-2.676c-0.267-0.85-0.733-1.607-1.4-2.275c-0.667-0.666-1.575-1.199-2.725-1.6s-2.625-0.6-4.425-0.6 H6.75v13.5H16.25z"/>
</g>
	</g>
</svg>

