<?xml version="1.0" standalone="no"?>
<!DOCTYPE svg PUBLIC "-//W3C//DTD SVG 20010904//EN"
 "http://www.w3.org/TR/2001/REC-SVG-20010904/DTD/svg10.dtd">
<svg version="1.0" xmlns="http://www.w3.org/2000/svg"
 width="700.000000pt" height="700.000000pt" viewBox="0 0 700.000000 700.000000"
 preserveAspectRatio="xMidYMid meet">
<metadata>
Created by potrace 1.11, written by Peter Selinger 2001-2013
</metadata>
<g transform="translate(0.000000,700.000000) scale(0.100000,-0.100000)"
fill="#000000" stroke="none">
<path d="M37 6993 c-2 -5 -3 -122 -3 -262 1 -214 3 -255 16 -263 8 -4 116 -46
240 -93 380 -142 943 -354 980 -369 19 -8 69 -27 110 -42 41 -14 89 -32 105
-39 17 -8 93 -37 170 -65 77 -28 149 -55 160 -60 11 -5 103 -40 205 -78 220
-83 867 -327 1210 -457 135 -51 355 -134 490 -184 135 -51 254 -96 265 -101
11 -5 103 -40 205 -78 213 -79 422 -158 735 -277 121 -46 247 -94 279 -106
l59 -22 -44 -17 c-24 -9 -460 -176 -969 -370 -509 -194 -988 -377 -1065 -407
-77 -30 -151 -58 -165 -62 -33 -11 -567 -214 -645 -246 -33 -13 -127 -49 -210
-80 -82 -31 -159 -60 -170 -65 -20 -9 -818 -313 -930 -355 -181 -67 -315 -118
-355 -135 -25 -10 -110 -42 -190 -71 -219 -77 -482 -185 -490 -200 -5 -8 -11
-32 -16 -54 -10 -53 -17 -1908 -7 -1903 4 1 80 50 168 109 146 96 199 129 364
228 88 52 357 183 481 233 293 119 618 200 900 225 161 15 549 9 630 -8 19 -4
53 -10 75 -13 90 -11 263 -59 370 -103 438 -179 683 -501 731 -958 1 -16 3
-78 3 -137 l1 -108 859 0 859 0 5 38 c6 48 1 515 -7 567 -3 22 -8 56 -10 75
-3 19 -8 55 -12 80 -3 25 -17 97 -30 160 -150 697 -559 1259 -1176 1615 -38
22 -68 42 -68 45 0 3 19 15 43 25 23 10 92 42 152 70 115 54 212 100 330 155
241 112 555 259 643 301 57 27 105 49 107 49 2 0 74 34 160 75 86 41 158 75
160 75 2 0 65 29 140 65 75 36 138 65 140 65 2 0 59 27 127 59 68 32 186 88
263 124 77 35 181 84 230 107 50 23 133 63 185 87 52 25 112 52 133 60 l37 15
0 558 0 557 -87 40 c-75 35 -1214 571 -1418 668 -38 18 -115 54 -170 80 -55
26 -131 62 -170 80 -74 35 -189 89 -345 162 -130 62 -258 123 -362 172 -49 22
-127 60 -175 82 -169 80 -279 131 -353 166 -41 19 -118 55 -170 80 -248 118
-305 144 -485 228 -38 18 -119 56 -180 85 -60 29 -147 70 -193 91 l-83 39
-1384 0 c-761 0 -1386 -3 -1388 -7z"/>
</g>
</svg>
