<svg version="1" xmlns="http://www.w3.org/2000/svg" width="933.333" height="933.333" viewBox="0 0 700.000000 700.000000"><path d="M261.4 136.2l.1 31.3 12.5 4.8c6.9 2.6 15.4 5.8 19 7.1 3.6 1.3 13.9 5.2 23 8.6 9.1 3.5 20.3 7.7 25 9.5 4.7 1.7 12.1 4.6 16.5 6.3 4.4 1.6 19 7.1 32.5 12.2 13.5 5 25.6 9.6 27 10.2 1.4.5 6.7 2.5 11.8 4.4 5.1 1.8 9.8 3.6 10.4 4 1.2.8-1.4 2-14.7 6.9-5.5 2-11.3 4.3-13 5-1.6.7-9.3 3.6-17 6.5-7.7 2.8-15.3 5.8-17 6.5-1.6.7-9.3 3.6-17 6.5-7.7 2.9-19.2 7.2-25.5 9.7-17.6 6.7-25.1 9.6-43 16.4-31.6 11.9-30.3 11.4-31.2 14.5-.4 1.6-1 5.1-1.3 7.9-.4 2.7-1.2 9-2 14-.8 4.9-1.7 11.2-2 14-.3 2.7-1 7.2-1.5 10-.5 2.7-1.2 7-1.5 9.5-.3 2.5-.9 7.1-1.4 10.2-.4 3.2-.6 5.8-.4 5.8.2 0 6.1-3.8 13.1-8.4 27.3-18.1 48.3-25.7 71.7-25.7 18.2 0 32.4 4.7 41.8 13.9 5.6 5.5 8.2 10.3 10 18.7 4 18.4-3.8 38.7-22.9 59.5-1.8 1.9-4.1 4.5-5.2 5.7-1.5 1.8-19.6 21.4-23.7 25.7-.6.6-6.9 7.4-14 15.1-7.1 7.7-15 16.2-17.6 19-2.6 2.7-5.6 5.9-6.6 7.1-1 1.2-6.5 7.2-12.3 13.4-5.8 6.2-11.6 12.5-13 14-5.3 5.8-22.6 24.5-25 27-7.1 7.4-19.6 21.4-20.3 22.6-.4.8-.6 2.9-.4 4.7l.3 3.2 116.7.2c64.2.1 116.7 0 116.7-.2 0-.3.9-4.9 2.1-10.1 1.1-5.3 2.2-10.4 2.4-11.3.2-.9 1.4-7 2.8-13.6 2.8-12.9 3.3-15.8 4.3-21.9.7-3.8.7-3.8-2.2-3.3-3.1.7-7 1.2-14.9 2.2-2.7.4-6.1.8-7.5 1-3.1.5-31.4 4.5-35.5 5-5.5.7-14 1.9-14.5 2-.3.1-3 .5-6 .9-8.1 1.1-11.2 1.6-14 2.1-1.4.2-4.7.7-7.5 1-2.7.3-6.1.8-7.5 1-4.1.6-10.2 1.4-15 2-2.5.4-5.6.8-7 1-1.4.2-4.3.6-6.5.9-2.2.3-7.1 1-11 1.5-3.8.6-7.1.9-7.2.7-.2-.2 1.8-2.2 4.4-4.6 2.7-2.3 11.3-10.4 19.3-18 8-7.5 17.8-16.8 21.9-20.6 13.5-12.7 44.7-43.8 50.4-50.4 19.7-22.9 29.8-40.8 34.8-62 2.2-9.2 1.7-31.8-1-42.5-5.5-21.8-17.1-38.7-34.9-50.6l-7.4-4.9 5.4-2.4c2.9-1.3 10.5-4.8 16.8-7.8 6.3-3 26.5-12.4 44.7-20.9l33.3-15.4v-36.6l-9.7-4.5c-5.4-2.6-13.6-6.4-18.3-8.6-4.7-2.2-15.9-7.5-25-11.8-9.1-4.3-19.9-9.4-24-11.3-4.1-1.9-15.1-7.1-24.5-11.5-9.3-4.4-20.6-9.6-25-11.7-4.4-2.1-14.5-6.8-22.4-10.6-7.9-3.8-14.5-6.9-14.7-6.9-.1 0-7.3-3.4-15.9-7.5-8.7-4.1-15.8-7.5-16-7.5-.1 0-5.8-2.6-12.6-5.9-21.1-10-32.2-15.1-32.9-15.1-.3 0-.6 14.1-.6 31.2z"/></svg>