<?xml version="1.0" standalone="no"?>
<!DOCTYPE svg PUBLIC "-//W3C//DTD SVG 20010904//EN"
 "http://www.w3.org/TR/2001/REC-SVG-20010904/DTD/svg10.dtd">
<svg version="1.0" xmlns="http://www.w3.org/2000/svg"
 width="700.000000pt" height="700.000000pt" viewBox="0 0 700.000000 700.000000"
 preserveAspectRatio="xMidYMid meet">
<metadata>
Created by potrace 1.11, written by Peter Selinger 2001-2013
</metadata>
<g transform="translate(0.000000,700.000000) scale(0.100000,-0.100000)"
fill="#000000" stroke="none">
<path d="M2189 6557 c-1 -58 0 -482 1 -537 l0 -45 158 -64 c137 -56 693 -286
897 -371 104 -43 478 -198 653 -270 l152 -63 -482 -239 c-701 -348 -915 -456
-983 -497 -146 -89 -292 -217 -377 -331 -65 -87 -194 -307 -186 -316 3 -3 73
-35 238 -111 30 -14 98 -46 150 -70 113 -53 170 -77 173 -72 2 2 14 29 27 59
42 94 108 190 185 265 111 110 212 163 379 200 112 25 345 25 441 1 264 -68
446 -239 501 -472 28 -119 7 -289 -49 -399 -60 -118 -163 -233 -296 -328 -73
-53 -311 -194 -375 -223 -17 -8 -38 -19 -46 -24 -8 -5 -62 -37 -120 -71 -58
-33 -119 -72 -137 -85 -17 -13 -34 -24 -38 -24 -6 0 -215 -153 -261 -192 -115
-96 -258 -240 -349 -353 -31 -38 -64 -79 -72 -90 -74 -89 -214 -342 -273 -490
-66 -165 -120 -378 -135 -530 -4 -38 -9 -78 -10 -87 -2 -10 -5 -62 -6 -115
l-2 -98 1433 0 1432 0 0 185 c0 102 -1 200 -1 218 l-1 33 -952 -1 c-524 0
-1000 -1 -1056 0 l-104 0 7 43 c4 23 9 53 12 67 23 131 94 294 170 389 51 64
247 256 351 344 138 117 321 244 447 311 28 14 59 32 70 38 11 7 43 26 70 42
133 78 388 249 455 304 155 128 284 285 362 437 91 179 121 316 122 545 0 200
-16 303 -73 459 -108 295 -337 535 -631 661 -61 27 -63 29 -40 38 21 9 233 94
355 143 17 7 50 20 75 29 66 25 354 142 359 146 8 7 2 517 -6 524 -4 4 -118
55 -253 113 -217 93 -1020 439 -2022 870 l-338 145 -1 -41z"/>
</g>
</svg>
